<svg id="svg" version="1.1" xmlns="http://www.w3.org/2000/svg" xmlns:xlink="http://www.w3.org/1999/xlink" width="400" height="400" viewBox="0, 0, 400,400"><g id="svgg"><path id="path0" d="M321.500 1.493 C 322.435 1.577,323.965 1.577,324.900 1.493 C 325.835 1.409,325.070 1.340,323.200 1.340 C 321.330 1.340,320.565 1.409,321.500 1.493 M306.600 3.600 L 305.400 3.905 306.476 3.953 C 307.068 3.979,307.664 3.820,307.800 3.600 C 307.936 3.380,307.992 3.221,307.924 3.247 C 307.856 3.273,307.260 3.432,306.600 3.600 M294.900 5.876 C 295.285 5.976,295.915 5.976,296.300 5.876 C 296.685 5.775,296.370 5.693,295.600 5.693 C 294.830 5.693,294.515 5.775,294.900 5.876 M228.600 17.600 L 227.400 17.905 228.476 17.953 C 229.068 17.979,229.664 17.820,229.800 17.600 C 229.936 17.380,229.992 17.221,229.924 17.247 C 229.856 17.273,229.260 17.432,228.600 17.600 M183.800 25.600 L 182.600 25.905 183.676 25.953 C 184.268 25.979,184.864 25.820,185.000 25.600 C 185.136 25.380,185.192 25.221,185.124 25.247 C 185.056 25.273,184.460 25.432,183.800 25.600 M172.400 27.600 L 171.000 27.895 172.276 27.947 C 172.978 27.976,173.664 27.820,173.800 27.600 C 173.936 27.380,173.992 27.224,173.924 27.253 C 173.856 27.282,173.170 27.438,172.400 27.600 M160.900 29.876 C 161.285 29.976,161.915 29.976,162.300 29.876 C 162.685 29.775,162.370 29.693,161.600 29.693 C 160.830 29.693,160.515 29.775,160.900 29.876 M137.800 34.000 C 137.664 34.220,137.158 34.414,136.676 34.432 C 136.172 34.450,136.029 34.554,136.339 34.678 C 136.636 34.796,137.266 34.700,137.739 34.463 C 138.213 34.227,139.050 33.960,139.600 33.871 C 140.430 33.736,140.384 33.700,139.324 33.654 C 138.622 33.625,137.936 33.780,137.800 34.000 M103.600 41.600 C 102.776 41.864,102.741 41.926,103.400 41.954 C 103.840 41.973,104.470 41.813,104.800 41.600 C 105.501 41.147,105.014 41.147,103.600 41.600 M94.800 45.600 C 94.267 45.945,94.267 45.988,94.800 45.988 C 95.130 45.988,95.670 45.813,96.000 45.600 C 96.533 45.255,96.533 45.212,96.000 45.212 C 95.670 45.212,95.130 45.387,94.800 45.600 M46.514 109.000 C 46.517 110.100,46.595 110.503,46.687 109.895 C 46.779 109.286,46.777 108.386,46.682 107.895 C 46.587 107.403,46.511 107.900,46.514 109.000 M46.520 120.400 C 46.520 121.610,46.595 122.105,46.687 121.500 C 46.778 120.895,46.778 119.905,46.687 119.300 C 46.595 118.695,46.520 119.190,46.520 120.400 M167.002 137.198 C 166.603 137.639,166.407 138.000,166.567 138.000 C 166.988 138.000,168.128 136.795,167.912 136.579 C 167.811 136.478,167.402 136.756,167.002 137.198 M165.002 139.198 C 164.603 139.639,164.407 140.000,164.567 140.000 C 164.988 140.000,166.128 138.795,165.912 138.579 C 165.811 138.478,165.402 138.756,165.002 139.198 M53.256 146.945 C 53.539 147.575,53.842 147.873,53.931 147.606 C 54.020 147.340,53.789 146.824,53.418 146.461 C 52.786 145.842,52.776 145.873,53.256 146.945 M115.905 159.883 C 116.402 159.979,117.122 159.975,117.505 159.875 C 117.887 159.775,117.480 159.696,116.600 159.701 C 115.720 159.705,115.407 159.787,115.905 159.883 M126.705 159.883 C 127.202 159.979,127.922 159.975,128.305 159.875 C 128.687 159.775,128.280 159.696,127.400 159.701 C 126.520 159.705,126.207 159.787,126.705 159.883 M120.500 160.691 C 121.325 160.778,122.675 160.778,123.500 160.691 C 124.325 160.605,123.650 160.534,122.000 160.534 C 120.350 160.534,119.675 160.605,120.500 160.691 M240.104 179.701 C 239.384 181.201,239.180 182.059,239.605 181.797 C 239.822 181.663,240.000 181.239,240.000 180.856 C 240.000 180.473,240.213 179.947,240.473 179.687 C 240.734 179.426,240.854 179.121,240.741 179.007 C 240.627 178.894,240.341 179.206,240.104 179.701 M233.693 211.200 C 233.693 211.970,233.775 212.285,233.876 211.900 C 233.976 211.515,233.976 210.885,233.876 210.500 C 233.775 210.115,233.693 210.430,233.693 211.200 M231.552 222.713 C 231.421 223.507,231.479 223.881,231.701 223.659 C 231.903 223.457,232.001 222.867,231.919 222.346 C 231.793 221.545,231.737 221.602,231.552 222.713 M227.701 247.800 C 227.705 248.680,227.787 248.993,227.883 248.495 C 227.979 247.998,227.975 247.278,227.875 246.895 C 227.775 246.513,227.696 246.920,227.701 247.800 M227.293 251.600 C 227.293 252.370,227.375 252.685,227.476 252.300 C 227.576 251.915,227.576 251.285,227.476 250.900 C 227.375 250.515,227.293 250.830,227.293 251.600 M225.693 262.000 C 225.693 262.770,225.775 263.085,225.876 262.700 C 225.976 262.315,225.976 261.685,225.876 261.300 C 225.775 260.915,225.693 261.230,225.693 262.000 M225.293 266.000 C 225.293 266.770,225.375 267.085,225.476 266.700 C 225.576 266.315,225.576 265.685,225.476 265.300 C 225.375 264.915,225.293 265.230,225.293 266.000 M223.701 277.800 C 223.705 278.680,223.787 278.993,223.883 278.495 C 223.979 277.998,223.975 277.278,223.875 276.895 C 223.775 276.513,223.696 276.920,223.701 277.800 M261.968 279.900 C 262.159 281.281,262.187 281.309,262.319 280.251 C 262.398 279.619,262.305 278.945,262.112 278.752 C 261.910 278.550,261.849 279.040,261.968 279.900 M223.301 282.200 C 223.305 283.080,223.387 283.393,223.483 282.895 C 223.579 282.398,223.575 281.678,223.475 281.295 C 223.375 280.913,223.296 281.320,223.301 282.200 M260.901 288.200 C 260.905 289.080,260.987 289.393,261.083 288.895 C 261.179 288.398,261.175 287.678,261.075 287.295 C 260.975 286.913,260.896 287.320,260.901 288.200 M222.501 291.400 C 222.505 292.280,222.587 292.593,222.683 292.095 C 222.779 291.598,222.775 290.878,222.675 290.495 C 222.575 290.113,222.496 290.520,222.501 291.400 M221.709 295.600 C 221.709 296.590,221.787 296.995,221.882 296.500 C 221.978 296.005,221.978 295.195,221.882 294.700 C 221.787 294.205,221.709 294.610,221.709 295.600 M260.109 298.000 C 260.109 298.990,260.187 299.395,260.282 298.900 C 260.378 298.405,260.378 297.595,260.282 297.100 C 260.187 296.605,260.109 297.010,260.109 298.000 M221.314 300.600 C 221.317 301.700,221.395 302.103,221.487 301.495 C 221.579 300.886,221.577 299.986,221.482 299.495 C 221.387 299.003,221.311 299.500,221.314 300.600 M258.920 309.200 C 258.920 310.410,258.995 310.905,259.087 310.300 C 259.178 309.695,259.178 308.705,259.087 308.100 C 258.995 307.495,258.920 307.990,258.920 309.200 M220.509 310.800 C 220.509 311.790,220.587 312.195,220.682 311.700 C 220.778 311.205,220.778 310.395,220.682 309.900 C 220.587 309.405,220.509 309.810,220.509 310.800 M219.720 315.600 C 219.720 316.810,219.795 317.305,219.887 316.700 C 219.978 316.095,219.978 315.105,219.887 314.500 C 219.795 313.895,219.720 314.390,219.720 315.600 M219.320 321.600 C 219.320 322.810,219.395 323.305,219.487 322.700 C 219.578 322.095,219.578 321.105,219.487 320.500 C 219.395 319.895,219.320 320.390,219.320 321.600 M258.137 323.800 C 258.139 325.560,258.209 326.230,258.293 325.289 C 258.378 324.349,258.377 322.909,258.291 322.089 C 258.205 321.270,258.136 322.040,258.137 323.800 M218.514 333.400 C 218.517 334.500,218.595 334.903,218.687 334.295 C 218.779 333.686,218.777 332.786,218.682 332.295 C 218.587 331.803,218.511 332.300,218.514 333.400 M217.787 359.200 C 217.787 371.630,217.838 376.715,217.900 370.500 C 217.962 364.285,217.962 354.115,217.900 347.900 C 217.838 341.685,217.787 346.770,217.787 359.200 " stroke="none" fill="#54dbac" fill-rule="evenodd"></path><path id="path1" d="M92.962 86.862 L 92.200 87.724 93.300 87.016 C 94.434 86.286,94.649 86.000,94.062 86.000 C 93.876 86.000,93.381 86.388,92.962 86.862 M45.600 113.800 C 45.600 114.350,45.780 114.800,46.000 114.800 C 46.220 114.800,46.400 114.350,46.400 113.800 C 46.400 113.250,46.220 112.800,46.000 112.800 C 45.780 112.800,45.600 113.250,45.600 113.800 M80.219 115.700 C 80.052 116.085,80.052 116.715,80.219 117.100 C 80.509 117.767,80.532 117.767,80.691 117.100 C 80.974 115.919,80.603 114.819,80.219 115.700 M170.812 133.184 C 170.488 133.389,170.321 133.654,170.441 133.774 C 170.560 133.894,171.005 133.729,171.429 133.409 C 172.273 132.771,171.760 132.585,170.812 133.184 " stroke="none" fill="#54cca3" fill-rule="evenodd"></path><path id="path2" d="M69.751 62.922 C 69.283 63.155,68.682 63.697,68.414 64.126 C 67.967 64.842,68.028 64.834,69.151 64.035 C 69.825 63.555,70.482 62.991,70.612 62.781 C 70.877 62.351,70.903 62.347,69.751 62.922 M66.400 65.977 C 65.850 66.607,65.168 67.545,64.884 68.061 C 64.563 68.644,64.839 68.469,65.611 67.600 C 66.738 66.332,67.801 64.776,67.514 64.816 C 67.451 64.824,66.950 65.347,66.400 65.977 M273.079 71.357 C 272.915 71.774,272.875 72.209,272.991 72.324 C 273.355 72.689,273.676 72.091,273.524 71.331 C 273.383 70.635,273.362 70.636,273.079 71.357 M111.800 76.000 C 111.660 76.227,111.996 76.400,112.576 76.400 C 113.139 76.400,113.600 76.220,113.600 76.000 C 113.600 75.780,113.251 75.600,112.824 75.600 C 112.397 75.600,111.936 75.780,111.800 76.000 M104.013 79.091 C 103.489 79.682,103.503 79.723,104.146 79.476 C 104.542 79.324,104.941 79.200,105.033 79.200 C 105.125 79.200,105.200 79.020,105.200 78.800 C 105.200 78.212,104.681 78.339,104.013 79.091 M55.067 80.667 C 54.684 81.049,54.738 81.600,55.157 81.600 C 55.354 81.600,55.618 81.330,55.745 81.000 C 55.979 80.390,55.553 80.181,55.067 80.667 M84.000 98.767 C 84.000 98.969,83.895 99.464,83.767 99.867 C 83.554 100.538,83.588 100.534,84.167 99.824 C 84.892 98.934,84.979 98.400,84.400 98.400 C 84.180 98.400,84.000 98.565,84.000 98.767 M46.501 112.600 C 46.505 113.480,46.587 113.793,46.683 113.295 C 46.779 112.798,46.775 112.078,46.675 111.695 C 46.575 111.313,46.496 111.720,46.501 112.600 M92.846 147.638 C 92.803 148.239,93.573 149.122,94.700 149.763 C 94.975 149.919,95.200 149.853,95.200 149.615 C 95.200 149.377,94.758 148.982,94.219 148.736 C 93.679 148.490,93.160 147.999,93.065 147.644 C 92.909 147.062,92.888 147.061,92.846 147.638 M142.442 155.234 C 141.915 155.445,141.563 155.696,141.659 155.793 C 141.947 156.081,143.600 155.536,143.600 155.153 C 143.600 154.959,143.555 154.811,143.500 154.825 C 143.445 154.839,142.969 155.023,142.442 155.234 M66.751 166.879 C 66.930 167.363,67.302 167.834,67.578 167.926 C 67.900 168.033,67.834 167.718,67.394 167.047 C 66.557 165.769,66.317 165.707,66.751 166.879 M172.254 172.829 C 171.674 173.285,171.200 173.865,171.200 174.118 C 171.200 174.371,171.480 174.178,171.823 173.689 C 172.165 173.200,172.705 172.800,173.023 172.800 C 173.340 172.800,173.600 172.620,173.600 172.400 C 173.600 171.840,173.450 171.888,172.254 172.829 M252.200 393.200 C 251.859 393.860,251.669 394.400,251.779 394.400 C 251.889 394.400,252.259 393.860,252.600 393.200 C 252.941 392.540,253.131 392.000,253.021 392.000 C 252.911 392.000,252.541 392.540,252.200 393.200 " stroke="none" fill="#54d4a4" fill-rule="evenodd"></path><path id="path3" d="M92.258 87.781 C 91.079 88.874,90.909 89.286,91.776 88.954 C 92.295 88.755,93.830 86.800,93.468 86.800 C 93.385 86.800,92.841 87.241,92.258 87.781 M45.600 111.800 C 45.600 112.350,45.780 112.800,46.000 112.800 C 46.220 112.800,46.400 112.350,46.400 111.800 C 46.400 111.250,46.220 110.800,46.000 110.800 C 45.780 110.800,45.600 111.250,45.600 111.800 M45.600 117.376 C 45.600 117.693,45.780 118.064,46.000 118.200 C 46.220 118.336,46.400 118.077,46.400 117.624 C 46.400 117.171,46.220 116.800,46.000 116.800 C 45.780 116.800,45.600 117.059,45.600 117.376 M169.362 134.458 C 168.604 135.312,168.605 135.314,169.500 134.844 C 169.995 134.584,170.400 134.198,170.400 133.986 C 170.400 133.418,170.209 133.505,169.362 134.458 M257.600 329.000 C 257.600 329.330,257.780 329.600,258.000 329.600 C 258.220 329.600,258.400 329.330,258.400 329.000 C 258.400 328.670,258.220 328.400,258.000 328.400 C 257.780 328.400,257.600 328.670,257.600 329.000 " stroke="none" fill="#4cc49c" fill-rule="evenodd"></path><path id="path4" d="M318.400 2.073 C 317.410 2.278,316.060 2.511,315.400 2.592 C 314.740 2.673,314.110 2.771,314.000 2.812 C 313.890 2.852,313.305 2.852,312.700 2.812 C 312.095 2.772,311.600 2.926,311.600 3.153 C 311.600 3.380,310.970 3.517,310.200 3.456 C 309.430 3.395,308.800 3.470,308.800 3.621 C 308.800 3.874,306.251 4.368,304.100 4.532 C 303.605 4.569,303.200 4.731,303.200 4.890 C 303.200 5.050,302.660 5.072,302.001 4.940 C 301.342 4.808,300.577 4.885,300.301 5.112 C 300.025 5.338,298.720 5.652,297.400 5.811 C 296.080 5.969,294.820 6.232,294.600 6.396 C 294.380 6.559,293.705 6.666,293.100 6.633 C 292.495 6.600,292.000 6.683,292.000 6.818 C 292.000 6.952,291.440 6.979,290.756 6.879 C 290.071 6.778,289.396 6.879,289.256 7.103 C 289.115 7.327,287.839 7.624,286.419 7.763 C 285.000 7.901,283.740 8.166,283.619 8.351 C 283.499 8.536,282.798 8.667,282.062 8.643 C 281.326 8.619,280.640 8.736,280.537 8.901 C 280.435 9.067,279.893 9.088,279.333 8.947 C 278.772 8.807,278.198 8.866,278.057 9.079 C 277.830 9.421,272.916 10.370,270.500 10.538 C 270.005 10.572,269.600 10.724,269.600 10.875 C 269.600 11.026,268.970 11.047,268.200 10.923 C 267.266 10.771,266.800 10.852,266.800 11.165 C 266.800 11.424,266.575 11.597,266.300 11.550 C 265.456 11.405,261.851 12.030,260.926 12.481 C 260.446 12.715,259.681 12.810,259.226 12.691 C 258.772 12.572,258.400 12.627,258.400 12.812 C 258.400 12.998,257.770 13.047,257.000 12.923 C 256.160 12.786,255.600 12.860,255.600 13.107 C 255.600 13.334,254.340 13.645,252.800 13.800 C 251.260 13.955,250.000 14.224,250.000 14.400 C 250.000 14.575,249.370 14.688,248.600 14.652 C 247.830 14.616,247.200 14.720,247.200 14.883 C 247.200 15.046,246.642 15.068,245.960 14.932 C 245.277 14.795,244.602 14.862,244.460 15.079 C 244.202 15.470,239.219 16.421,237.100 16.483 C 236.495 16.500,236.000 16.638,236.000 16.788 C 236.000 16.938,235.440 16.979,234.756 16.879 C 234.071 16.778,233.396 16.871,233.256 17.085 C 232.971 17.518,228.350 18.351,224.500 18.665 C 223.125 18.777,222.000 19.019,222.000 19.202 C 222.000 19.386,220.827 19.662,219.394 19.815 C 217.961 19.969,216.699 20.239,216.590 20.417 C 216.480 20.594,215.763 20.681,214.995 20.609 C 214.228 20.538,213.600 20.645,213.600 20.847 C 213.600 21.050,213.131 21.097,212.557 20.953 C 211.983 20.810,211.398 20.859,211.257 21.064 C 211.041 21.377,207.926 22.001,203.600 22.597 C 203.050 22.673,202.510 22.768,202.400 22.808 C 202.290 22.848,201.615 22.849,200.900 22.810 C 200.185 22.771,199.600 22.918,199.600 23.138 C 199.600 23.357,198.427 23.662,196.994 23.815 C 195.561 23.969,194.309 24.223,194.212 24.381 C 194.114 24.539,192.906 24.708,191.526 24.758 C 190.146 24.808,188.923 24.989,188.809 25.161 C 188.625 25.437,184.871 26.161,181.400 26.590 C 180.740 26.672,180.110 26.771,180.000 26.812 C 179.890 26.852,179.305 26.852,178.700 26.812 C 178.078 26.771,177.600 26.946,177.600 27.214 C 177.600 27.520,177.104 27.630,176.200 27.524 C 175.430 27.434,174.800 27.486,174.800 27.638 C 174.800 27.907,172.561 28.343,170.300 28.516 C 169.695 28.562,169.200 28.724,169.200 28.875 C 169.200 29.026,168.570 29.047,167.800 28.923 C 166.960 28.786,166.400 28.860,166.400 29.107 C 166.400 29.334,165.139 29.645,163.598 29.800 C 162.058 29.955,160.708 30.225,160.599 30.401 C 160.491 30.577,159.862 30.683,159.201 30.637 C 158.540 30.592,158.000 30.668,158.000 30.808 C 158.000 30.947,157.440 30.979,156.756 30.879 C 156.071 30.778,155.396 30.879,155.256 31.103 C 155.115 31.327,153.839 31.624,152.419 31.763 C 151.000 31.901,149.740 32.166,149.619 32.351 C 149.499 32.536,148.798 32.667,148.062 32.643 C 147.326 32.619,146.640 32.736,146.537 32.901 C 146.435 33.067,145.893 33.088,145.333 32.947 C 144.772 32.807,144.198 32.868,144.057 33.083 C 143.818 33.447,139.194 34.353,136.700 34.524 C 136.095 34.566,135.600 34.724,135.600 34.875 C 135.600 35.026,134.970 35.047,134.200 34.923 C 133.266 34.771,132.800 34.852,132.800 35.165 C 132.800 35.424,132.575 35.597,132.300 35.550 C 131.456 35.405,127.851 36.030,126.926 36.481 C 126.446 36.715,125.681 36.810,125.226 36.691 C 124.772 36.572,124.400 36.634,124.400 36.827 C 124.400 37.021,123.842 37.068,123.160 36.932 C 122.460 36.792,121.806 36.864,121.660 37.097 C 121.517 37.325,120.239 37.624,118.819 37.763 C 117.400 37.901,116.140 38.147,116.019 38.310 C 115.899 38.472,115.019 38.619,114.065 38.635 C 113.111 38.651,112.211 38.859,112.065 39.096 C 111.918 39.333,111.122 39.653,110.295 39.809 C 109.468 39.964,108.693 40.250,108.572 40.445 C 108.451 40.640,107.823 40.800,107.176 40.800 C 106.529 40.800,106.000 40.936,106.000 41.102 C 106.000 41.400,103.475 42.400,102.500 42.488 C 102.225 42.513,102.000 42.678,102.000 42.854 C 102.000 43.031,101.759 43.082,101.464 42.969 C 101.169 42.856,100.697 43.042,100.415 43.382 C 100.133 43.722,99.564 44.000,99.151 44.000 C 98.738 44.000,98.400 44.142,98.400 44.315 C 98.400 44.488,98.038 44.657,97.596 44.690 C 97.154 44.724,96.511 45.032,96.167 45.375 C 95.824 45.719,95.286 46.000,94.971 46.000 C 94.657 46.000,94.400 46.142,94.400 46.315 C 94.400 46.488,94.045 46.657,93.611 46.689 C 93.177 46.722,92.423 47.120,91.935 47.574 C 91.448 48.028,90.828 48.400,90.558 48.400 C 90.288 48.400,90.007 48.564,89.933 48.763 C 89.860 48.963,89.448 49.188,89.017 49.263 C 88.587 49.339,87.912 49.715,87.517 50.100 C 87.123 50.485,86.530 50.800,86.200 50.800 C 85.870 50.800,85.600 50.972,85.600 51.181 C 85.600 51.391,84.925 51.876,84.100 52.260 C 83.275 52.643,82.456 53.192,82.280 53.478 C 82.104 53.765,81.718 54.000,81.423 54.000 C 81.127 54.000,80.772 54.296,80.633 54.657 C 80.495 55.019,80.280 55.214,80.157 55.091 C 80.034 54.967,79.588 55.167,79.167 55.533 C 78.745 55.900,78.054 56.501,77.630 56.870 C 77.207 57.238,76.442 57.762,75.930 58.033 C 75.419 58.305,74.765 58.858,74.477 59.263 C 74.190 59.669,73.768 60.000,73.541 60.000 C 73.313 60.000,72.072 61.035,70.782 62.300 C 69.492 63.565,68.157 64.870,67.814 65.200 C 65.861 67.079,62.400 70.936,62.400 71.233 C 62.400 71.425,61.950 71.876,61.400 72.237 C 60.850 72.597,60.400 73.101,60.400 73.357 C 60.400 73.613,60.032 74.137,59.583 74.522 C 59.134 74.907,58.874 75.397,59.007 75.611 C 59.139 75.825,59.052 76.000,58.814 76.000 C 58.575 76.000,58.209 76.450,58.000 77.000 C 57.791 77.550,57.425 78.000,57.186 78.000 C 56.948 78.000,56.865 78.181,57.002 78.403 C 57.139 78.624,56.969 78.914,56.625 79.046 C 56.281 79.178,56.000 79.617,56.000 80.022 C 56.000 80.427,55.550 81.244,55.000 81.838 C 54.450 82.431,54.000 83.161,54.000 83.458 C 54.000 83.756,53.832 84.000,53.627 84.000 C 53.294 84.000,52.895 84.852,52.619 86.149 C 52.566 86.397,52.315 87.107,52.061 87.726 C 51.808 88.345,51.600 88.943,51.600 89.055 C 51.600 89.166,51.316 89.541,50.969 89.888 C 50.622 90.235,50.425 90.852,50.531 91.260 C 50.638 91.667,50.578 92.000,50.398 92.000 C 50.218 92.000,49.949 92.720,49.800 93.600 C 49.651 94.480,49.355 95.200,49.141 95.200 C 48.928 95.200,48.869 95.388,49.011 95.618 C 49.153 95.847,49.096 96.252,48.886 96.518 C 48.675 96.783,48.554 97.314,48.616 97.698 C 48.678 98.083,48.565 98.498,48.364 98.622 C 48.164 98.746,48.000 99.287,48.000 99.824 C 48.000 100.361,47.851 100.800,47.669 100.800 C 47.487 100.800,47.418 101.340,47.515 102.000 C 47.626 102.760,47.516 103.200,47.215 103.200 C 46.919 103.200,46.765 103.768,46.808 104.700 C 46.846 105.525,46.847 106.290,46.811 106.400 C 46.626 106.954,46.708 122.842,46.897 123.030 C 47.018 123.151,47.022 123.959,46.906 124.825 C 46.782 125.751,46.860 126.400,47.096 126.400 C 47.316 126.400,47.618 127.475,47.767 128.788 C 47.915 130.101,48.198 131.275,48.394 131.396 C 48.590 131.518,48.683 131.969,48.600 132.400 C 48.517 132.831,48.601 133.277,48.787 133.392 C 48.973 133.507,49.031 133.961,48.916 134.400 C 48.794 134.866,48.904 135.200,49.178 135.200 C 49.438 135.200,49.610 135.515,49.562 135.900 C 49.449 136.788,50.000 138.800,50.356 138.800 C 50.504 138.800,50.666 139.285,50.715 139.878 C 50.764 140.470,51.009 141.082,51.260 141.237 C 51.511 141.392,51.617 141.779,51.495 142.098 C 51.373 142.416,51.600 142.912,52.000 143.200 C 52.400 143.488,52.634 143.968,52.520 144.265 C 52.405 144.563,52.643 145.300,53.048 145.903 C 54.056 147.405,56.170 151.731,56.076 152.100 C 56.034 152.265,56.180 152.400,56.400 152.400 C 56.620 152.400,56.800 152.670,56.800 153.000 C 56.800 153.330,56.999 153.600,57.243 153.600 C 57.486 153.600,57.582 153.870,57.455 154.200 C 57.315 154.565,57.455 154.800,57.813 154.800 C 58.136 154.800,58.400 155.056,58.400 155.369 C 58.400 155.682,58.819 156.447,59.332 157.069 C 59.844 157.691,60.379 158.515,60.519 158.900 C 60.660 159.285,60.955 159.600,61.175 159.600 C 61.395 159.600,61.462 159.915,61.324 160.300 C 61.186 160.685,61.222 160.865,61.404 160.699 C 61.923 160.227,63.176 161.591,62.909 162.338 C 62.779 162.702,62.820 162.867,62.999 162.703 C 63.449 162.296,64.400 163.150,64.400 163.961 C 64.400 164.325,64.794 164.888,65.275 165.212 C 66.554 166.072,68.011 167.658,67.815 167.976 C 67.607 168.312,72.961 173.600,73.508 173.600 C 73.723 173.600,74.436 174.230,75.094 175.000 C 75.752 175.770,76.585 176.400,76.945 176.400 C 77.305 176.400,77.600 176.591,77.600 176.824 C 77.600 177.057,77.780 177.136,78.000 177.000 C 78.220 176.864,78.400 177.033,78.400 177.376 C 78.400 177.719,78.552 178.000,78.739 178.000 C 78.925 178.000,79.457 178.315,79.920 178.700 C 81.868 180.319,82.591 180.800,83.081 180.800 C 83.367 180.800,83.600 180.968,83.600 181.173 C 83.600 181.378,83.963 181.661,84.406 181.802 C 84.849 181.943,85.091 182.252,84.944 182.491 C 84.788 182.744,84.862 182.809,85.124 182.647 C 85.370 182.495,85.937 182.737,86.385 183.185 C 86.833 183.633,87.546 184.000,87.969 184.000 C 88.392 184.000,89.286 184.461,89.956 185.024 C 90.625 185.587,91.674 186.138,92.286 186.248 C 92.899 186.357,93.460 186.618,93.534 186.826 C 93.608 187.034,93.833 187.103,94.034 186.979 C 94.235 186.855,94.400 186.924,94.400 187.133 C 94.400 187.342,94.850 187.626,95.400 187.764 C 95.950 187.902,96.400 188.175,96.400 188.370 C 96.400 188.565,96.760 188.631,97.200 188.516 C 97.647 188.399,98.000 188.504,98.000 188.753 C 98.000 188.999,98.322 189.200,98.715 189.200 C 99.109 189.200,100.075 189.528,100.862 189.930 C 101.649 190.331,102.677 190.631,103.147 190.597 C 103.616 190.562,104.000 190.667,104.000 190.831 C 104.000 190.994,105.305 191.345,106.900 191.610 C 108.495 191.875,110.025 192.273,110.301 192.496 C 110.577 192.718,111.342 192.792,112.001 192.660 C 112.759 192.508,113.200 192.584,113.200 192.866 C 113.200 193.167,113.913 193.238,115.400 193.085 C 116.649 192.956,117.600 193.018,117.600 193.229 C 117.600 193.697,127.875 193.725,128.164 193.258 C 128.281 193.069,129.281 193.002,130.388 193.108 C 131.665 193.231,132.400 193.146,132.400 192.876 C 132.400 192.613,132.935 192.537,133.800 192.677 C 134.630 192.812,135.200 192.739,135.200 192.498 C 135.200 192.275,136.190 191.968,137.400 191.817 C 138.610 191.666,139.600 191.392,139.600 191.209 C 139.600 191.025,139.960 190.969,140.400 191.084 C 140.881 191.210,141.200 191.096,141.200 190.800 C 141.200 190.504,141.519 190.390,142.000 190.516 C 142.440 190.631,142.800 190.578,142.800 190.398 C 142.800 190.218,143.520 189.949,144.400 189.800 C 145.280 189.651,146.000 189.353,146.000 189.138 C 146.000 188.922,146.341 188.854,146.758 188.987 C 147.177 189.120,147.767 188.976,148.077 188.666 C 148.385 188.358,149.079 187.977,149.619 187.820 C 151.042 187.406,155.576 185.162,155.835 184.743 C 155.956 184.547,156.216 184.486,156.413 184.608 C 156.610 184.730,157.137 184.463,157.585 184.015 C 158.033 183.567,158.630 183.200,158.911 183.200 C 159.192 183.200,159.720 182.885,160.083 182.500 C 161.240 181.275,161.803 180.934,162.364 181.121 C 162.665 181.222,162.802 181.127,162.668 180.910 C 162.534 180.694,162.869 180.315,163.413 180.067 C 163.956 179.820,164.400 179.414,164.400 179.166 C 164.400 178.918,164.642 178.807,164.938 178.921 C 165.234 179.034,165.724 178.784,166.026 178.364 C 166.329 177.944,166.736 177.600,166.931 177.600 C 167.126 177.600,167.639 177.150,168.071 176.600 C 168.504 176.050,169.081 175.600,169.353 175.600 C 169.625 175.600,170.196 175.317,170.624 174.970 C 171.051 174.624,171.130 174.473,170.800 174.635 C 169.726 175.161,172.167 172.741,173.309 172.147 C 174.565 171.494,180.800 165.365,180.800 164.784 C 180.800 164.115,182.507 162.419,182.922 162.675 C 183.143 162.812,183.234 162.761,183.125 162.562 C 182.867 162.090,184.242 160.785,184.631 161.133 C 184.794 161.280,184.790 161.161,184.622 160.869 C 184.299 160.312,185.604 158.800,186.407 158.800 C 186.649 158.800,186.724 158.600,186.573 158.356 C 186.422 158.112,186.783 157.496,187.376 156.987 C 187.968 156.478,188.441 155.958,188.426 155.831 C 188.338 155.055,188.458 154.800,188.912 154.800 C 189.194 154.800,189.635 154.244,189.891 153.563 C 190.189 152.776,190.530 152.433,190.831 152.619 C 191.127 152.802,191.235 152.706,191.121 152.364 C 190.931 151.793,190.978 151.714,192.631 149.853 C 193.191 149.222,193.550 148.447,193.429 148.132 C 193.308 147.817,193.367 147.656,193.561 147.776 C 194.108 148.114,195.271 146.053,195.005 145.215 C 194.874 144.804,194.955 144.352,195.184 144.210 C 195.723 143.877,195.731 139.600,195.192 139.600 C 194.957 139.600,194.891 139.177,195.036 138.600 C 195.195 137.967,195.118 137.600,194.826 137.600 C 194.572 137.600,194.404 137.375,194.452 137.100 C 194.568 136.428,193.547 134.307,192.844 133.761 C 192.532 133.519,192.386 133.146,192.518 132.932 C 192.805 132.469,191.427 131.200,190.638 131.200 C 190.334 131.200,189.982 130.930,189.855 130.600 C 189.729 130.270,189.349 130.000,189.013 130.000 C 188.676 130.000,188.400 129.809,188.400 129.576 C 188.400 129.343,188.235 129.255,188.034 129.379 C 187.833 129.503,187.597 129.392,187.510 129.131 C 187.423 128.870,186.643 128.635,185.776 128.609 C 184.909 128.583,183.797 128.424,183.304 128.255 C 182.811 128.086,182.181 128.090,181.904 128.263 C 181.300 128.640,180.631 128.773,178.900 128.863 C 178.185 128.899,177.600 129.052,177.600 129.201 C 177.600 129.350,176.871 129.712,175.980 130.006 C 175.090 130.300,174.195 130.824,173.993 131.170 C 173.790 131.517,173.619 131.667,173.612 131.503 C 173.605 131.340,171.085 133.725,168.011 136.803 C 164.937 139.882,162.170 142.400,161.862 142.400 C 161.555 142.400,160.875 143.026,160.352 143.792 C 159.828 144.557,158.905 145.389,158.300 145.640 C 157.695 145.892,157.196 146.300,157.190 146.549 C 157.185 146.797,155.925 147.784,154.390 148.743 C 152.856 149.702,151.600 150.657,151.600 150.867 C 151.600 151.076,151.432 151.144,151.228 151.017 C 151.023 150.891,150.370 151.237,149.777 151.786 C 149.184 152.335,148.542 152.688,148.350 152.569 C 148.157 152.450,148.000 152.543,148.000 152.776 C 148.000 153.009,147.865 153.166,147.700 153.125 C 147.535 153.083,146.680 153.488,145.800 154.024 C 144.920 154.560,144.065 154.954,143.900 154.899 C 143.735 154.845,143.600 154.972,143.600 155.182 C 143.600 155.392,142.970 155.682,142.200 155.826 C 141.430 155.971,140.800 156.260,140.800 156.468 C 140.800 156.677,140.620 156.736,140.400 156.600 C 140.180 156.464,140.000 156.538,140.000 156.764 C 140.000 156.990,139.748 157.078,139.440 156.960 C 139.133 156.842,138.765 156.933,138.624 157.162 C 138.335 157.629,135.272 158.588,134.500 158.453 C 134.225 158.404,134.000 158.547,134.000 158.770 C 134.000 158.993,133.728 159.070,133.395 158.943 C 133.062 158.815,132.549 158.911,132.254 159.155 C 131.959 159.400,130.567 159.715,129.159 159.855 C 127.752 159.995,126.420 160.241,126.200 160.402 C 125.647 160.806,118.323 160.830,117.813 160.429 C 117.586 160.250,116.232 159.977,114.805 159.821 C 113.377 159.666,112.088 159.342,111.940 159.103 C 111.792 158.863,111.115 158.667,110.435 158.667 C 109.756 158.667,109.200 158.517,109.200 158.333 C 109.200 158.150,108.853 158.000,108.429 158.000 C 108.004 158.000,107.378 157.721,107.038 157.380 C 106.697 157.040,106.189 156.801,105.909 156.850 C 105.304 156.955,103.218 156.018,102.471 155.305 C 102.181 155.027,101.692 154.800,101.386 154.800 C 101.079 154.800,100.633 154.435,100.394 153.989 C 100.155 153.543,99.795 153.279,99.595 153.403 C 99.232 153.628,99.002 153.465,96.277 151.053 C 95.498 150.364,94.397 149.477,93.830 149.081 C 93.264 148.686,92.800 147.981,92.800 147.515 C 92.800 147.048,92.700 146.767,92.577 146.890 C 92.158 147.309,89.892 144.899,90.215 144.376 C 90.414 144.053,90.361 143.977,90.062 144.162 C 89.788 144.331,89.600 144.193,89.600 143.824 C 89.600 143.481,89.311 143.200,88.957 143.200 C 88.543 143.200,88.398 142.981,88.550 142.585 C 88.685 142.235,88.531 141.872,88.193 141.742 C 87.867 141.617,87.600 141.258,87.600 140.945 C 87.600 140.631,87.368 140.286,87.084 140.177 C 86.801 140.068,86.540 139.595,86.504 139.126 C 86.469 138.656,86.275 138.166,86.074 138.036 C 85.873 137.906,85.581 137.395,85.427 136.900 C 85.272 136.405,84.984 136.000,84.786 136.000 C 84.587 136.000,84.540 135.700,84.681 135.334 C 84.836 134.929,84.775 134.768,84.524 134.923 C 84.280 135.074,83.828 134.128,83.412 132.589 C 83.027 131.165,82.506 129.997,82.256 129.994 C 82.005 129.991,82.070 129.813,82.400 129.600 C 82.792 129.346,82.829 129.210,82.505 129.206 C 82.232 129.203,81.894 128.480,81.754 127.600 C 81.613 126.720,81.372 126.000,81.218 126.000 C 81.064 126.000,81.018 125.460,81.115 124.800 C 81.212 124.140,81.111 123.600,80.891 123.600 C 80.645 123.600,80.572 122.603,80.701 121.000 C 80.845 119.202,80.769 118.400,80.455 118.400 C 80.182 118.400,80.000 117.678,80.000 116.600 C 80.000 115.566,80.186 114.800,80.437 114.800 C 80.713 114.800,80.837 113.957,80.774 112.500 C 80.719 111.235,80.778 109.930,80.905 109.600 C 81.033 109.270,81.351 107.785,81.614 106.300 C 81.876 104.815,82.271 103.600,82.492 103.600 C 82.713 103.600,82.799 103.240,82.684 102.800 C 82.569 102.360,82.635 102.000,82.832 102.000 C 83.028 102.000,83.392 101.190,83.642 100.200 C 83.891 99.210,84.264 98.400,84.471 98.400 C 84.678 98.400,84.736 98.220,84.600 98.000 C 84.464 97.780,84.532 97.600,84.751 97.600 C 84.969 97.600,85.376 96.970,85.654 96.200 C 85.933 95.430,86.389 94.800,86.668 94.800 C 86.953 94.800,87.075 94.539,86.946 94.203 C 86.815 93.863,86.992 93.501,87.358 93.361 C 87.711 93.225,88.000 92.935,88.000 92.715 C 88.000 92.495,88.450 91.961,89.000 91.529 C 89.550 91.096,90.000 90.484,90.000 90.169 C 90.000 89.443,93.895 85.600,94.631 85.600 C 94.934 85.600,95.476 85.150,95.837 84.600 C 96.197 84.050,96.722 83.600,97.003 83.600 C 97.284 83.600,97.625 83.311,97.761 82.958 C 97.906 82.581,98.260 82.414,98.624 82.554 C 98.964 82.684,99.148 82.639,99.033 82.454 C 98.919 82.269,99.269 81.915,99.813 81.667 C 100.356 81.420,100.800 81.056,100.800 80.859 C 100.800 80.661,101.295 80.400,101.900 80.277 C 102.505 80.155,103.407 79.673,103.905 79.207 C 104.403 78.741,104.988 78.469,105.205 78.603 C 105.422 78.737,105.600 78.676,105.600 78.467 C 105.600 78.258,106.093 77.963,106.696 77.812 C 107.299 77.660,107.892 77.375,108.013 77.178 C 108.135 76.981,108.677 76.770,109.217 76.710 C 109.758 76.649,110.304 76.460,110.430 76.289 C 110.557 76.119,111.592 75.869,112.730 75.734 C 113.869 75.599,114.800 75.345,114.800 75.169 C 114.800 74.994,115.430 74.953,116.200 75.077 C 117.093 75.222,117.600 75.144,117.600 74.862 C 117.600 74.588,118.038 74.508,118.751 74.650 C 119.406 74.781,120.020 74.691,120.175 74.440 C 120.325 74.198,121.056 74.000,121.800 74.000 C 122.544 74.000,123.245 73.850,123.359 73.667 C 123.472 73.483,124.113 73.414,124.782 73.512 C 125.452 73.610,126.000 73.527,126.000 73.326 C 126.000 73.125,126.630 73.034,127.400 73.124 C 128.187 73.216,128.800 73.110,128.800 72.882 C 128.800 72.639,129.444 72.562,130.400 72.691 C 131.404 72.825,132.000 72.746,132.000 72.477 C 132.000 72.239,133.248 71.925,134.800 71.773 C 136.340 71.621,137.600 71.376,137.600 71.229 C 137.600 71.081,138.230 71.034,139.000 71.124 C 139.812 71.219,140.400 71.112,140.400 70.869 C 140.400 70.614,140.947 70.539,141.800 70.677 C 142.638 70.813,143.200 70.740,143.200 70.494 C 143.200 70.082,145.655 69.598,147.700 69.607 C 148.305 69.610,148.800 69.447,148.800 69.244 C 148.800 69.042,149.520 68.973,150.400 69.091 C 151.432 69.229,152.000 69.148,152.000 68.863 C 152.000 68.584,152.445 68.509,153.200 68.660 C 153.898 68.800,154.400 68.731,154.400 68.497 C 154.400 68.275,155.750 67.967,157.400 67.813 C 159.050 67.658,160.400 67.378,160.400 67.191 C 160.400 67.004,161.030 66.953,161.800 67.077 C 162.735 67.229,163.200 67.148,163.200 66.834 C 163.200 66.513,163.645 66.447,164.600 66.626 C 165.477 66.791,166.000 66.732,166.000 66.469 C 166.000 66.239,166.315 66.054,166.700 66.060 C 168.139 66.082,171.630 65.474,171.819 65.169 C 171.927 64.995,172.641 64.954,173.407 65.079 C 174.321 65.227,174.800 65.147,174.800 64.845 C 174.800 64.553,175.168 64.477,175.805 64.637 C 176.358 64.776,177.033 64.707,177.305 64.484 C 177.577 64.261,179.015 63.950,180.500 63.793 C 181.985 63.635,183.200 63.359,183.200 63.179 C 183.200 62.998,183.830 62.953,184.600 63.077 C 185.569 63.235,186.000 63.152,186.000 62.809 C 186.000 62.475,186.339 62.398,187.038 62.574 C 187.609 62.717,188.284 62.670,188.538 62.469 C 188.792 62.269,190.164 61.977,191.586 61.823 C 193.008 61.668,194.356 61.427,194.580 61.289 C 194.805 61.150,195.576 61.087,196.294 61.149 C 197.012 61.211,197.600 61.092,197.600 60.886 C 197.600 60.680,198.051 60.597,198.602 60.703 C 199.154 60.808,199.829 60.711,200.102 60.486 C 200.376 60.262,201.818 59.950,203.306 59.792 C 204.794 59.635,206.106 59.353,206.221 59.166 C 206.337 58.979,206.964 58.933,207.616 59.063 C 208.315 59.203,208.800 59.131,208.800 58.888 C 208.800 58.638,209.430 58.561,210.400 58.691 C 211.404 58.825,212.000 58.746,212.000 58.477 C 212.000 58.239,213.248 57.925,214.800 57.773 C 216.340 57.621,217.600 57.360,217.600 57.192 C 217.600 57.025,218.230 56.973,219.000 57.077 C 219.807 57.185,220.400 57.093,220.400 56.858 C 220.400 56.615,220.968 56.542,221.800 56.677 C 222.629 56.812,223.200 56.739,223.200 56.499 C 223.200 56.276,224.415 55.964,225.900 55.806 C 227.385 55.648,228.777 55.410,228.994 55.277 C 229.211 55.145,229.976 55.087,230.694 55.149 C 231.412 55.211,232.000 55.072,232.000 54.841 C 232.000 54.587,232.475 54.515,233.200 54.660 C 233.898 54.800,234.400 54.731,234.400 54.497 C 234.400 54.275,235.750 53.967,237.400 53.813 C 239.050 53.658,240.400 53.378,240.400 53.191 C 240.400 53.004,241.030 52.953,241.800 53.077 C 242.668 53.218,243.200 53.142,243.200 52.877 C 243.200 52.613,243.732 52.537,244.600 52.677 C 245.468 52.818,246.000 52.742,246.000 52.477 C 246.000 52.242,246.315 52.052,246.700 52.054 C 248.414 52.066,252.000 51.457,252.000 51.154 C 252.000 50.970,252.518 50.924,253.151 51.050 C 253.808 51.182,254.420 51.091,254.576 50.839 C 254.729 50.591,255.280 50.505,255.830 50.643 C 256.369 50.779,257.033 50.709,257.305 50.489 C 257.577 50.269,258.970 49.959,260.400 49.799 C 261.830 49.640,263.180 49.401,263.400 49.269 C 263.620 49.137,264.295 49.081,264.900 49.145 C 265.505 49.208,266.000 49.071,266.000 48.840 C 266.000 48.587,266.476 48.515,267.199 48.660 C 267.858 48.792,268.623 48.719,268.899 48.497 C 269.175 48.276,271.245 47.857,273.500 47.566 C 275.755 47.275,277.600 46.925,277.600 46.788 C 277.600 46.651,278.119 46.615,278.753 46.708 C 279.387 46.801,280.027 46.680,280.176 46.438 C 280.325 46.197,281.022 46.000,281.724 46.000 C 283.151 46.000,283.456 47.694,282.464 50.118 C 282.212 50.732,281.895 51.679,281.759 52.221 C 281.623 52.764,281.359 53.302,281.173 53.417 C 280.987 53.532,280.936 53.888,281.059 54.209 C 281.184 54.536,281.000 54.902,280.642 55.039 C 280.289 55.175,280.000 55.703,280.000 56.214 C 280.000 56.725,279.775 57.385,279.500 57.681 C 279.225 57.977,278.936 58.485,278.858 58.810 C 278.780 59.134,278.671 59.580,278.617 59.800 C 278.562 60.020,278.221 60.869,277.859 61.687 C 277.496 62.505,277.200 63.360,277.200 63.587 C 277.200 63.814,277.009 64.000,276.776 64.000 C 276.543 64.000,276.464 64.180,276.600 64.400 C 276.736 64.620,276.657 64.800,276.424 64.800 C 276.191 64.800,276.000 65.064,276.000 65.388 C 276.000 65.711,275.618 66.709,275.151 67.605 C 274.683 68.501,274.405 69.338,274.532 69.465 C 274.658 69.592,274.500 69.957,274.181 70.276 C 273.861 70.596,273.600 71.204,273.600 71.629 C 273.600 72.053,273.412 72.400,273.182 72.400 C 272.953 72.400,272.811 72.625,272.868 72.900 C 273.010 73.586,271.534 76.800,271.076 76.800 C 270.873 76.800,270.802 77.163,270.918 77.607 C 271.034 78.051,270.875 78.668,270.564 78.978 C 270.254 79.289,270.000 79.817,270.000 80.153 C 270.000 81.140,267.957 85.988,267.537 85.995 C 267.393 85.998,267.369 86.360,267.484 86.800 C 267.599 87.240,267.516 87.600,267.299 87.600 C 267.083 87.600,266.591 88.725,266.206 90.100 C 265.822 91.475,265.323 92.716,265.098 92.858 C 264.873 93.000,264.669 93.674,264.645 94.357 C 264.620 95.040,264.485 95.599,264.345 95.599 C 264.204 95.600,263.973 96.217,263.832 96.971 C 263.690 97.725,263.375 98.408,263.130 98.490 C 262.885 98.572,262.639 99.080,262.584 99.619 C 262.435 101.051,261.954 102.400,261.591 102.400 C 261.417 102.400,261.369 102.760,261.484 103.200 C 261.606 103.667,261.496 104.000,261.220 104.000 C 260.951 104.000,260.842 104.303,260.968 104.700 C 261.090 105.085,260.939 105.883,260.633 106.473 C 260.326 107.063,259.954 108.098,259.806 108.773 C 259.658 109.448,259.351 110.000,259.125 110.000 C 258.899 110.000,258.824 110.286,258.959 110.636 C 259.173 111.194,258.228 113.850,257.621 114.400 C 257.413 114.588,257.292 114.972,256.989 116.400 C 256.919 116.730,256.825 117.045,256.781 117.100 C 256.736 117.155,256.658 117.515,256.606 117.900 C 256.388 119.517,255.872 121.232,255.542 121.436 C 255.347 121.557,255.303 121.843,255.445 122.072 C 255.586 122.302,255.490 122.621,255.231 122.781 C 254.971 122.941,254.705 123.506,254.640 124.036 C 254.446 125.600,253.554 128.561,253.116 129.095 C 252.893 129.367,252.801 129.826,252.912 130.115 C 253.023 130.404,252.869 131.081,252.571 131.620 C 252.273 132.159,252.021 132.960,252.012 133.400 C 252.003 133.840,251.716 134.736,251.374 135.390 C 251.033 136.045,250.837 136.900,250.939 137.290 C 251.042 137.681,251.001 138.000,250.848 138.000 C 250.696 138.000,250.545 138.315,250.514 138.700 C 250.416 139.888,249.458 143.389,249.173 143.600 C 249.025 143.710,248.800 144.430,248.673 145.200 C 248.148 148.398,247.447 151.200,247.173 151.200 C 247.012 151.200,246.880 151.835,246.880 152.611 C 246.880 153.387,246.702 154.242,246.485 154.511 C 246.267 154.780,245.963 155.945,245.807 157.100 C 245.652 158.255,245.380 159.200,245.202 159.200 C 245.025 159.200,244.880 159.808,244.880 160.552 C 244.880 161.295,244.700 162.240,244.479 162.652 C 244.259 163.063,243.951 164.255,243.794 165.300 C 243.637 166.345,243.367 167.200,243.193 167.200 C 243.019 167.200,242.792 168.055,242.689 169.100 C 242.585 170.145,242.233 172.030,241.905 173.289 C 241.578 174.547,241.406 175.672,241.522 175.789 C 241.638 175.905,241.502 176.000,241.220 176.000 C 240.888 176.000,240.774 176.354,240.898 177.000 C 241.003 177.550,240.953 178.000,240.787 178.000 C 240.621 178.000,240.476 178.405,240.466 178.900 C 240.436 180.345,239.498 184.981,239.192 185.200 C 239.037 185.310,238.796 186.300,238.656 187.400 C 238.178 191.133,237.913 192.400,237.609 192.400 C 237.442 192.400,237.368 192.940,237.445 193.600 C 237.525 194.289,237.398 194.800,237.146 194.800 C 236.885 194.800,236.790 195.237,236.912 195.874 C 237.025 196.464,236.870 197.769,236.567 198.774 C 236.265 199.778,235.900 201.635,235.757 202.900 C 235.614 204.165,235.317 205.200,235.098 205.200 C 234.869 205.200,234.802 205.709,234.940 206.400 C 235.072 207.060,235.030 207.600,234.847 207.600 C 234.664 207.600,234.500 208.095,234.483 208.700 C 234.421 210.811,233.471 215.802,233.082 216.057 C 232.867 216.199,232.781 216.788,232.892 217.367 C 233.002 217.946,232.978 218.490,232.838 218.577 C 232.698 218.663,232.613 219.379,232.650 220.167 C 232.687 220.955,232.577 221.600,232.406 221.600 C 232.234 221.600,231.967 222.950,231.813 224.600 C 231.658 226.250,231.353 227.600,231.135 227.600 C 230.917 227.600,230.771 228.185,230.810 228.900 C 230.849 229.615,230.845 230.380,230.801 230.600 C 230.758 230.820,230.716 231.585,230.709 232.300 C 230.702 233.015,230.563 233.600,230.400 233.600 C 230.237 233.600,229.978 235.040,229.824 236.800 C 229.671 238.560,229.384 240.000,229.187 240.000 C 228.991 240.000,228.826 241.125,228.822 242.500 C 228.813 245.175,228.719 245.967,228.334 246.600 C 228.200 246.820,227.961 248.485,227.804 250.300 C 227.646 252.115,227.365 253.600,227.180 253.600 C 226.995 253.600,226.831 254.815,226.816 256.300 C 226.784 259.354,226.670 260.440,226.319 261.008 C 226.185 261.224,225.945 263.066,225.786 265.101 C 225.627 267.135,225.322 268.800,225.109 268.800 C 224.889 268.800,224.798 269.578,224.899 270.594 C 224.998 271.581,224.989 272.478,224.879 272.587 C 224.770 272.697,224.642 273.374,224.594 274.093 C 224.547 274.812,224.291 277.020,224.026 279.000 C 223.761 280.980,223.539 283.185,223.532 283.900 C 223.525 284.615,223.333 285.200,223.104 285.200 C 222.839 285.200,222.770 285.998,222.915 287.400 C 223.040 288.610,223.020 289.600,222.871 289.600 C 222.722 289.600,222.625 290.455,222.655 291.500 C 222.686 292.545,222.569 293.580,222.397 293.800 C 222.224 294.020,221.953 296.315,221.793 298.900 C 221.625 301.629,221.334 303.600,221.097 303.600 C 220.842 303.600,220.768 304.568,220.899 306.200 C 221.014 307.630,220.994 308.800,220.854 308.800 C 220.714 308.800,220.617 309.887,220.637 311.215 C 220.658 312.544,220.539 313.714,220.374 313.816 C 220.209 313.918,219.945 316.521,219.786 319.601 C 219.625 322.718,219.327 325.200,219.113 325.200 C 218.897 325.200,218.763 326.383,218.808 327.900 C 218.853 329.385,218.857 330.690,218.819 330.800 C 218.780 330.910,218.736 332.309,218.720 333.910 C 218.705 335.510,218.537 336.916,218.346 337.033 C 217.898 337.310,217.891 381.600,218.339 381.600 C 218.655 381.600,218.867 382.975,218.879 385.100 C 218.882 385.595,219.059 386.000,219.272 386.000 C 219.485 386.000,219.595 386.315,219.518 386.700 C 219.440 387.085,219.514 387.580,219.682 387.800 C 219.850 388.020,220.441 388.766,220.994 389.458 C 221.547 390.150,222.004 390.870,222.009 391.058 C 222.013 391.246,222.668 391.940,223.464 392.600 C 224.260 393.260,225.246 394.115,225.656 394.500 C 226.065 394.885,226.406 395.065,226.413 394.900 C 226.420 394.735,226.645 394.881,226.913 395.225 C 227.417 395.871,228.774 396.575,229.300 396.464 C 229.465 396.429,229.600 396.599,229.600 396.843 C 229.600 397.086,229.858 397.186,230.174 397.065 C 230.490 396.944,230.806 397.018,230.877 397.230 C 230.947 397.441,231.949 397.726,233.102 397.863 C 234.256 398.000,235.200 398.266,235.200 398.456 C 235.200 398.645,236.820 398.800,238.800 398.800 C 240.780 398.800,242.400 398.640,242.400 398.445 C 242.400 398.250,243.210 397.969,244.200 397.821 C 245.190 397.672,246.000 397.363,246.000 397.133 C 246.000 396.903,246.270 396.818,246.600 396.945 C 246.930 397.071,247.200 396.990,247.200 396.764 C 247.200 396.538,247.380 396.464,247.600 396.600 C 247.820 396.736,248.000 396.669,248.000 396.451 C 248.000 396.232,248.405 395.932,248.900 395.782 C 249.732 395.531,253.270 392.096,254.896 389.961 C 255.279 389.458,255.704 388.451,255.841 387.723 C 255.977 386.995,256.242 386.400,256.428 386.400 C 256.615 386.400,256.754 385.905,256.737 385.300 C 256.679 383.221,256.931 381.166,257.271 380.956 C 257.458 380.841,257.628 369.013,257.649 354.673 C 257.690 326.069,257.862 318.800,258.498 318.800 C 258.767 318.800,258.839 317.543,258.706 315.200 C 258.593 313.220,258.613 311.600,258.750 311.600 C 258.888 311.600,258.977 310.250,258.949 308.600 C 258.920 306.950,259.038 305.600,259.210 305.600 C 259.382 305.600,259.518 304.449,259.512 303.043 C 259.505 301.636,259.611 300.305,259.747 300.086 C 259.883 299.866,260.019 298.587,260.049 297.243 C 260.080 295.899,260.286 294.800,260.508 294.800 C 260.758 294.800,260.829 293.890,260.693 292.400 C 260.574 291.080,260.595 290.000,260.741 290.000 C 260.887 290.000,260.941 289.186,260.862 288.190 C 260.783 287.195,260.925 286.132,261.177 285.827 C 261.430 285.523,261.639 284.582,261.643 283.737 C 261.656 280.229,261.955 277.875,262.422 277.586 C 262.766 277.374,262.842 276.710,262.667 275.439 C 262.529 274.428,262.547 273.600,262.708 273.600 C 262.868 273.600,262.986 272.790,262.968 271.800 C 262.950 270.810,263.059 270.000,263.210 270.000 C 263.361 270.000,263.612 268.785,263.769 267.300 C 264.129 263.890,264.187 263.554,264.571 262.699 C 264.745 262.314,264.780 261.575,264.650 261.058 C 264.521 260.542,264.541 259.992,264.695 259.838 C 264.850 259.683,264.923 258.937,264.857 258.179 C 264.792 257.420,264.914 256.800,265.128 256.800 C 265.342 256.800,265.644 255.360,265.800 253.600 C 265.956 251.840,266.224 250.400,266.396 250.400 C 266.891 250.400,267.106 248.039,266.629 247.841 C 266.341 247.722,266.338 247.653,266.620 247.632 C 266.861 247.613,266.970 247.004,266.876 246.200 C 266.783 245.405,266.889 244.800,267.122 244.800 C 267.347 244.800,267.658 243.450,267.813 241.800 C 267.967 240.150,268.275 238.800,268.497 238.800 C 268.731 238.800,268.800 238.298,268.660 237.600 C 268.528 236.940,268.591 236.400,268.800 236.400 C 269.009 236.400,269.072 235.860,268.940 235.200 C 268.802 234.509,268.869 234.000,269.098 234.000 C 269.317 234.000,269.624 232.877,269.779 231.504 C 269.934 230.131,270.249 228.782,270.478 228.506 C 270.707 228.230,270.808 227.554,270.703 227.002 C 270.597 226.451,270.621 226.000,270.755 226.000 C 270.890 226.000,271.036 225.595,271.080 225.100 C 271.274 222.935,272.158 218.800,272.428 218.800 C 272.590 218.800,272.730 217.872,272.739 216.737 C 272.748 215.603,272.937 214.563,273.158 214.426 C 273.380 214.289,273.634 213.332,273.723 212.299 C 273.812 211.266,274.112 210.148,274.389 209.813 C 274.667 209.478,274.800 208.843,274.685 208.402 C 274.569 207.961,274.613 207.600,274.782 207.600 C 274.952 207.600,275.041 207.150,274.980 206.600 C 274.920 206.050,275.014 205.600,275.189 205.600 C 275.364 205.600,275.631 204.613,275.782 203.406 C 275.933 202.200,276.199 201.124,276.373 201.016 C 276.548 200.908,276.691 200.099,276.691 199.217 C 276.691 198.335,276.879 197.385,277.108 197.107 C 277.337 196.828,277.652 195.745,277.808 194.700 C 277.964 193.655,278.270 192.800,278.489 192.800 C 278.714 192.800,278.777 192.365,278.636 191.800 C 278.495 191.239,278.558 190.800,278.780 190.800 C 278.997 190.800,279.070 190.528,278.943 190.195 C 278.815 189.862,278.894 189.367,279.118 189.095 C 279.342 188.823,279.652 187.745,279.808 186.700 C 279.964 185.655,280.232 184.800,280.405 184.800 C 280.578 184.800,280.720 184.165,280.720 183.389 C 280.720 182.613,280.895 181.758,281.108 181.489 C 281.321 181.220,281.625 180.280,281.784 179.400 C 281.942 178.520,282.256 177.577,282.481 177.305 C 282.705 177.033,282.785 176.538,282.657 176.205 C 282.530 175.872,282.561 175.600,282.727 175.600 C 282.893 175.600,283.058 175.285,283.094 174.900 C 283.250 173.252,284.186 170.000,284.506 170.000 C 284.697 170.000,284.740 169.640,284.600 169.200 C 284.449 168.723,284.528 168.400,284.797 168.400 C 285.044 168.400,285.156 168.253,285.045 168.074 C 284.800 167.676,285.777 164.710,286.060 164.993 C 286.170 165.104,286.181 164.655,286.085 163.997 C 285.972 163.226,286.083 162.800,286.397 162.800 C 286.666 162.800,286.789 162.548,286.670 162.239 C 286.552 161.931,286.568 161.565,286.706 161.428 C 287.008 161.126,287.259 160.124,287.340 158.900 C 287.373 158.405,287.535 158.000,287.700 158.000 C 287.865 158.000,288.000 157.730,288.000 157.400 C 288.000 157.070,288.164 156.800,288.364 156.800 C 288.564 156.800,288.715 155.973,288.700 154.963 C 288.685 153.953,288.864 153.007,289.099 152.862 C 289.334 152.717,289.653 151.922,289.809 151.095 C 289.964 150.268,290.242 149.497,290.428 149.383 C 290.613 149.268,290.664 148.910,290.540 148.587 C 290.416 148.264,290.503 148.000,290.734 148.000 C 290.965 148.000,291.085 147.640,291.000 147.200 C 290.915 146.760,291.013 146.400,291.218 146.400 C 291.423 146.400,291.706 145.680,291.846 144.800 C 291.987 143.920,292.224 143.200,292.372 143.200 C 292.520 143.200,292.660 142.546,292.683 141.747 C 292.705 140.948,292.904 140.183,293.125 140.046 C 293.346 139.910,293.653 139.125,293.807 138.303 C 293.961 137.480,294.248 136.906,294.444 137.027 C 294.640 137.148,294.827 136.832,294.861 136.324 C 294.956 134.882,295.004 134.628,295.264 134.200 C 295.397 133.980,295.638 133.170,295.799 132.400 C 295.960 131.630,296.227 130.820,296.392 130.600 C 296.556 130.380,296.705 129.930,296.722 129.600 C 296.781 128.448,298.231 124.765,298.514 125.048 C 298.672 125.205,298.813 124.898,298.830 124.367 C 298.878 122.800,299.195 121.445,299.611 121.029 C 299.825 120.815,300.000 120.316,300.000 119.920 C 300.000 119.524,300.170 119.200,300.377 119.200 C 300.584 119.200,300.685 118.844,300.602 118.408 C 300.518 117.973,300.610 117.517,300.807 117.396 C 301.004 117.274,301.064 116.910,300.940 116.587 C 300.816 116.264,300.898 116.000,301.122 116.000 C 301.346 116.000,301.651 115.280,301.800 114.400 C 301.949 113.520,302.254 112.800,302.478 112.800 C 302.702 112.800,302.782 112.530,302.655 112.200 C 302.529 111.870,302.599 111.600,302.813 111.600 C 303.026 111.600,303.171 111.465,303.135 111.300 C 303.100 111.135,303.280 110.493,303.535 109.874 C 303.791 109.255,304.000 108.400,304.000 107.974 C 304.000 107.548,304.191 107.200,304.424 107.200 C 304.657 107.200,304.724 107.000,304.572 106.755 C 304.421 106.511,304.456 106.196,304.649 106.055 C 305.127 105.708,306.505 101.968,306.474 101.100 C 306.461 100.715,306.602 100.400,306.788 100.400 C 306.974 100.400,307.357 99.500,307.639 98.400 C 307.921 97.300,308.309 96.400,308.503 96.400 C 308.696 96.400,308.740 96.040,308.600 95.600 C 308.460 95.160,308.506 94.800,308.701 94.800 C 308.896 94.800,309.300 93.900,309.600 92.800 C 309.900 91.700,310.303 90.800,310.496 90.800 C 310.689 90.800,310.736 90.620,310.600 90.400 C 310.464 90.180,310.556 90.000,310.803 90.000 C 311.072 90.000,311.151 89.677,311.000 89.200 C 310.854 88.741,310.928 88.400,311.173 88.400 C 311.408 88.400,311.600 88.062,311.600 87.649 C 311.600 87.236,311.874 86.671,312.209 86.393 C 312.561 86.101,312.718 85.573,312.582 85.144 C 312.452 84.735,312.515 84.400,312.721 84.400 C 312.927 84.400,313.334 83.545,313.625 82.500 C 313.916 81.455,314.395 80.356,314.691 80.058 C 314.986 79.760,315.119 79.175,314.987 78.758 C 314.854 78.341,314.893 77.999,315.073 77.997 C 315.716 77.991,316.331 76.091,315.849 75.600 C 315.515 75.261,315.554 75.176,316.000 75.271 C 316.368 75.350,316.578 75.129,316.544 74.700 C 316.514 74.315,316.642 74.000,316.829 74.000 C 317.016 74.000,317.363 73.280,317.600 72.400 C 317.837 71.520,318.192 70.800,318.389 70.800 C 318.586 70.800,318.665 70.350,318.566 69.800 C 318.466 69.250,318.561 68.800,318.777 68.800 C 318.993 68.800,319.363 68.080,319.600 67.200 C 319.837 66.320,320.216 65.600,320.442 65.600 C 320.672 65.600,320.742 65.246,320.600 64.800 C 320.458 64.354,320.528 64.000,320.758 64.000 C 320.984 64.000,321.363 63.280,321.600 62.400 C 321.837 61.520,322.223 60.800,322.459 60.800 C 322.716 60.800,322.786 60.400,322.636 59.800 C 322.496 59.243,322.558 58.800,322.777 58.800 C 322.993 58.800,323.363 58.080,323.600 57.200 C 323.837 56.320,324.216 55.600,324.442 55.600 C 324.672 55.600,324.742 55.246,324.600 54.800 C 324.458 54.354,324.528 54.000,324.758 54.000 C 324.984 54.000,325.363 53.280,325.600 52.400 C 325.837 51.520,326.192 50.800,326.389 50.800 C 326.586 50.800,326.665 50.350,326.566 49.800 C 326.466 49.250,326.561 48.800,326.777 48.800 C 326.993 48.800,327.363 48.080,327.600 47.200 C 327.837 46.320,328.216 45.600,328.442 45.600 C 328.672 45.600,328.742 45.246,328.600 44.800 C 328.458 44.354,328.528 44.000,328.758 44.000 C 328.984 44.000,329.363 43.280,329.600 42.400 C 329.837 41.520,330.192 40.800,330.389 40.800 C 330.586 40.800,330.665 40.350,330.566 39.800 C 330.466 39.250,330.561 38.800,330.777 38.800 C 330.993 38.800,331.363 38.080,331.600 37.200 C 331.837 36.320,332.216 35.600,332.442 35.600 C 332.672 35.600,332.742 35.246,332.600 34.800 C 332.460 34.360,332.506 34.000,332.701 34.000 C 332.896 34.000,333.300 33.100,333.600 32.000 C 333.900 30.900,334.311 30.000,334.515 30.000 C 334.719 30.000,334.784 29.736,334.660 29.413 C 334.536 29.090,334.607 28.719,334.818 28.589 C 335.028 28.459,335.402 27.553,335.648 26.576 C 335.894 25.599,336.224 24.800,336.381 24.800 C 336.538 24.800,336.690 24.575,336.719 24.300 C 336.958 22.020,337.120 21.147,337.342 20.925 C 337.765 20.502,337.640 13.200,337.210 13.200 C 336.990 13.200,336.925 12.677,337.060 12.000 C 337.219 11.203,337.140 10.800,336.823 10.800 C 336.532 10.800,336.443 10.496,336.594 10.020 C 336.749 9.530,336.564 8.964,336.095 8.495 C 335.685 8.085,335.421 7.536,335.508 7.275 C 335.595 7.014,335.393 6.695,335.059 6.567 C 334.724 6.439,334.548 6.079,334.668 5.767 C 334.801 5.420,334.631 5.200,334.230 5.200 C 333.870 5.200,333.471 4.930,333.345 4.600 C 333.218 4.270,332.923 4.000,332.689 4.000 C 332.455 4.000,331.925 3.694,331.512 3.321 C 331.099 2.947,330.545 2.600,330.281 2.550 C 330.016 2.500,328.830 2.266,327.645 2.029 C 325.119 1.526,320.947 1.545,318.400 2.073 " stroke="none" fill="#58d8ac" fill-rule="evenodd"></path></g></svg>